<?xml version="1.0" encoding="utf-8"?>
<!-- Generator: Adobe Illustrator 18.0.0, SVG Export Plug-In . SVG Version: 6.00 Build 0)  -->
<!DOCTYPE svg PUBLIC "-//W3C//DTD SVG 1.1//EN" "http://www.w3.org/Graphics/SVG/1.1/DTD/svg11.dtd">
<svg version="1.1" id="레이어_1" xmlns="http://www.w3.org/2000/svg" xmlns:xlink="http://www.w3.org/1999/xlink" x="0px"
	 y="0px" viewBox="0 0 512 512" enable-background="new 0 0 512 512" xml:space="preserve">
<g id="XMLID_1_">
	<g>
		<path fill="#FFFFFF" d="M446.9,371.5c0,0,18.1,15.3-9.7,2c-86.3-41.3-112.4-46.9-126.6-58.9c-14.9-12.6-8.1-17-25.8-32.9
			c1.8-2.2,3.2-3,2.6-10.5L446.9,371.5z"/>
		<path fill="#FFFFFF" d="M259.4,42.8c11,95,20.2,120.1,17.5,138.5c-2.8,19.3-10.1,15.9-14.1,39.3c-2.8-0.4-4.3-1.1-10.4-0.6V31.6
			C252.4,31.6,255.9,12.1,259.4,42.8z"/>
		<path fill="#FFFFFF" d="M225.3,274.5L61,366.7c0,0-18.7,6.6,6.3-11.6c77.5-56.1,94.9-76.4,112.2-83.1c18.2-7,18.8,1,41.2-6.9
			C221.8,267.8,221.8,269.5,225.3,274.5z"/>
	</g>
	<g>
	</g>
</g>
</svg>
