<?xml version="1.0" encoding="utf-8"?>
<!-- Generator: Adobe Illustrator 18.0.0, SVG Export Plug-In . SVG Version: 6.00 Build 0)  -->
<!DOCTYPE svg PUBLIC "-//W3C//DTD SVG 1.1//EN" "http://www.w3.org/Graphics/SVG/1.1/DTD/svg11.dtd">
<svg version="1.1" id="Layer_1" xmlns="http://www.w3.org/2000/svg" xmlns:xlink="http://www.w3.org/1999/xlink" x="0px" y="0px"
	 viewBox="0 0 100 100" enable-background="new 0 0 100 100" xml:space="preserve">
<g>
	<g id="XMLID_1_">
		<g>
			<path fill="#616161" d="M71.9,53.6c0,5.2-3.3,9.7-8,11.3c0-1.3-0.4-2.7-1.2-3.8c3.1-1.1,5.2-4.1,5.2-7.5c0-4.4-3.6-8-8-8
				c-1.6,0-3.1,0.5-4.3,1.3c-1.2-5.3-6-9.3-11.7-9.3c-6.6,0-12,5.4-12,12c0,4.5,2.5,8.4,6.1,10.5l0,0c-1,1-1.6,2.2-1.9,3.5
				c-4.9-2.7-8.2-8-8.2-14c0-8.8,7.2-16,16-16c6,0,11.2,3.3,14,8.2c0.7-0.1,1.3-0.2,2-0.2C66.6,41.6,71.9,47,71.9,53.6z"/>
			<path fill="#63B4CF" d="M59.1,63c1.2,1.2,1.2,3.1,0,4.2c-1.2,1.2-3.1,1.2-4.2,0c-1.2-1.2-1.2-3.1,0-4.2l2.1-2.1L59.1,63z"/>
			<path fill="#63B4CF" d="M52.1,71c1.2,1.2,1.2,3.1,0,4.2c-1.2,1.2-3.1,1.2-4.2,0c-1.2-1.2-1.2-3.1,0-4.2l2.1-2.1L52.1,71z"/>
			<path fill="#63B4CF" d="M45.1,63c1.2,1.2,1.2,3.1,0,4.2c-1.2,1.2-3.1,1.2-4.2,0c-1.2-1.2-1.2-3.1,0-4.2l2.1-2.1L45.1,63z"/>
		</g>
		<g>
		</g>
	</g>
</g>
</svg>
